<svg width="64" height="64" viewBox="0 0 64 64" fill="none" xmlns="http://www.w3.org/2000/svg">
<rect width="64" height="64" fill="#FFA842"/>
<path d="M56 53.0001C56 54.657 54.6569 56.0001 53 56.0001H45.8541C44.7178 56.0001 43.679 55.3581 43.1708 54.3417L34.6833 37.3666C33.5777 35.1555 30.4223 35.1555 29.3167 37.3666L20.8292 54.3417C20.321 55.3581 19.2822 56.0001 18.1459 56.0001H11C9.34309 56.0001 7.99995 54.657 7.99995 53.0001V45.8542C7.99995 44.7179 8.64196 43.6791 9.65831 43.1709L26.6334 34.6833C28.8446 33.5778 28.8446 30.4223 26.6334 29.3168L9.65831 20.8292C8.64195 20.321 7.99995 19.2822 7.99995 18.1459V11C7.99995 9.34315 9.3431 8 11 8H18.1459C19.2822 8 20.321 8.64201 20.8292 9.65836L29.3167 26.6335C30.4223 28.8446 33.5777 28.8446 34.6833 26.6335L43.1708 9.65836C43.679 8.64201 44.7178 8 45.8541 8H53C54.6569 8 56 9.34315 56 11V18.1459C56 19.2822 55.358 20.321 54.3417 20.8292L37.3666 29.3168C35.1554 30.4223 35.1554 33.5778 37.3666 34.6833L54.3417 43.1709C55.358 43.6791 56 44.7179 56 45.8542V53.0001Z" fill="black"/>
</svg>
