<svg width="32" height="32" viewBox="0 0 32 32" fill="none" xmlns="http://www.w3.org/2000/svg">
<rect width="32" height="32" rx="4" fill="white"/>
<path d="M28 26.5C28 27.3285 27.3285 28.0001 26.5 28.0001H22.9271C22.3589 28.0001 21.8395 27.679 21.5854 27.1709L17.3416 18.6833C16.7889 17.5777 15.2111 17.5777 14.6584 18.6833L10.4146 27.1709C10.1605 27.679 9.64109 28.0001 9.07293 28.0001H5.49998C4.67155 28.0001 3.99997 27.3285 3.99997 26.5V22.9271C3.99997 22.3589 4.32098 21.8395 4.82915 21.5854L13.3167 17.3417C14.4223 16.7889 14.4223 15.2112 13.3167 14.6584L4.82915 10.4146C4.32098 10.1605 3.99997 9.64112 3.99997 9.07296V5.5C3.99997 4.67157 4.67155 4 5.49998 4H9.07293C9.64109 4 10.1605 4.321 10.4146 4.82918L14.6584 13.3167C15.2111 14.4223 16.7889 14.4223 17.3416 13.3167L21.5854 4.82918C21.8395 4.321 22.3589 4 22.9271 4H26.5C27.3285 4 28 4.67157 28 5.5V9.07296C28 9.64112 27.679 10.1605 27.1708 10.4146L18.6833 14.6584C17.5777 15.2112 17.5777 16.7889 18.6833 17.3417L27.1708 21.5854C27.679 21.8395 28 22.3589 28 22.9271V26.5Z" fill="#FFA842"/>
</svg>
