<svg width="86" height="24" viewBox="0 0 86 24" fill="none" xmlns="http://www.w3.org/2000/svg">
<g clip-path="url(#clip0_26_476)">
<path d="M32.2343 19.8067C30.4038 19.8067 28.9435 19.3895 27.8533 18.555C26.7765 17.7071 26.144 16.5159 25.9555 14.9816H28.4791C28.6003 15.8699 28.9973 16.563 29.6703 17.061C30.3432 17.5455 31.2248 17.7878 32.315 17.7878C33.2168 17.7878 33.9032 17.6263 34.3743 17.3033C34.8588 16.9668 35.1011 16.5024 35.1011 15.9102C35.1011 15.3853 34.953 14.9614 34.6569 14.6383C34.3608 14.3153 33.8628 14.0529 33.163 13.851L30.5384 13.0636C29.2059 12.6598 28.2234 12.1282 27.5908 11.4687C26.9717 10.8092 26.6621 9.98143 26.6621 8.98544C26.6621 8.15097 26.8775 7.42417 27.3082 6.80504C27.7389 6.18591 28.3445 5.70811 29.1252 5.37163C29.9193 5.03515 30.8412 4.86691 31.8911 4.86691C33.5062 4.86691 34.7915 5.26395 35.7471 6.05805C36.7162 6.83869 37.268 7.90197 37.4026 9.2479H34.879C34.731 8.44034 34.3945 7.84813 33.8696 7.47127C33.3447 7.08096 32.6381 6.8858 31.7497 6.8858C30.9691 6.8858 30.35 7.04058 29.8924 7.35014C29.4347 7.6597 29.2059 8.08367 29.2059 8.62204C29.2059 9.0662 29.3405 9.44306 29.6097 9.75262C29.8924 10.0622 30.4105 10.3314 31.1643 10.5602L33.8292 11.3677C35.1617 11.7581 36.1307 12.2897 36.7364 12.9627C37.3421 13.6356 37.6449 14.4903 37.6449 15.5267C37.6449 16.8995 37.1671 17.956 36.2115 18.6963C35.2693 19.4366 33.9436 19.8067 32.2343 19.8067ZM44.6246 19.8269C43.6421 19.8269 42.8412 19.5981 42.2221 19.1405C41.6164 18.6694 41.2396 18.0233 41.0915 17.2023L41.2934 17.1821V23.7637H38.7496V9.32865H41.2328V11.6504L41.031 11.61C41.2194 10.8428 41.6501 10.2372 42.3231 9.793C42.996 9.34884 43.817 9.12677 44.7861 9.12677C45.7013 9.12677 46.4954 9.34884 47.1684 9.793C47.8548 10.2237 48.3865 10.8361 48.7633 11.6302C49.1402 12.4243 49.3286 13.3597 49.3286 14.4364C49.3286 15.5267 49.1334 16.4755 48.7431 17.2831C48.3528 18.0906 47.8077 18.7165 47.1078 19.1607C46.4079 19.6048 45.5802 19.8269 44.6246 19.8269ZM43.9785 17.7272C44.7996 17.7272 45.4523 17.4446 45.9369 16.8793C46.4214 16.3006 46.6637 15.493 46.6637 14.4566C46.6637 13.4203 46.4147 12.6194 45.9167 12.0542C45.4321 11.4889 44.7794 11.2062 43.9584 11.2062C43.1508 11.2062 42.498 11.4956 42 12.0743C41.502 12.6396 41.253 13.4405 41.253 14.4768C41.253 15.5132 41.502 16.314 42 16.8793C42.498 17.4446 43.1575 17.7272 43.9785 17.7272ZM55.3031 19.8269C54.2129 19.8269 53.2506 19.5981 52.4161 19.1405C51.5951 18.6829 50.9558 18.0503 50.4981 17.2427C50.0405 16.4217 49.8117 15.4863 49.8117 14.4364C49.8117 13.3866 50.0405 12.4647 50.4981 11.6706C50.9558 10.8765 51.5951 10.2573 52.4161 9.81319C53.2506 9.35557 54.2129 9.12677 55.3031 9.12677C56.4068 9.12677 57.3691 9.35557 58.1901 9.81319C59.0111 10.2573 59.6504 10.8765 60.1081 11.6706C60.5657 12.4647 60.7945 13.3866 60.7945 14.4364C60.7945 15.4863 60.5589 16.4217 60.0879 17.2427C59.6303 18.0503 58.9909 18.6829 58.1699 19.1405C57.3489 19.5981 56.3933 19.8269 55.3031 19.8269ZM55.3031 17.7878C55.8415 17.7878 56.326 17.6532 56.7567 17.384C57.1874 17.1014 57.5239 16.7111 57.7661 16.2131C58.0084 15.7016 58.1295 15.1027 58.1295 14.4163C58.1295 13.4068 57.8604 12.6127 57.322 12.034C56.7971 11.4552 56.1241 11.1658 55.3031 11.1658C54.4821 11.1658 53.8024 11.4552 53.264 12.034C52.7256 12.6127 52.4565 13.4068 52.4565 14.4163C52.4565 15.1027 52.5776 15.7016 52.8199 16.2131C53.0756 16.7111 53.4121 17.1014 53.8293 17.384C54.26 17.6532 54.7513 17.7878 55.3031 17.7878ZM61.858 19.625V4.94766H64.4018V19.625H61.858ZM68.5002 19.625L63.8164 14.2749L68.3589 9.32865H71.4276L66.1785 14.7393L66.3198 13.7904L71.6295 19.625H68.5002ZM76.2216 19.8269C75.1314 19.8269 74.1758 19.5981 73.3548 19.1405C72.5473 18.6829 71.9147 18.0503 71.4571 17.2427C71.0129 16.4352 70.7908 15.5065 70.7908 14.4566C70.7908 13.4068 71.0129 12.4849 71.4571 11.6908C71.9147 10.8832 72.5473 10.2573 73.3548 9.81319C74.1624 9.35557 75.1045 9.12677 76.1813 9.12677C77.2042 9.12677 78.0925 9.34211 78.8462 9.77281C79.5999 10.19 80.1854 10.7823 80.6026 11.5494C81.0199 12.3166 81.2285 13.2117 81.2285 14.2346C81.2285 14.423 81.2218 14.598 81.2083 14.7595C81.1949 14.921 81.1747 15.0825 81.1477 15.244H72.3656V13.4674H79.1894L78.6645 13.9519C78.6645 12.9828 78.4424 12.256 77.9983 11.7715C77.5541 11.287 76.935 11.0447 76.1409 11.0447C75.2795 11.0447 74.5931 11.3408 74.0816 11.933C73.5836 12.5252 73.3346 13.3799 73.3346 14.497C73.3346 15.6007 73.5836 16.4486 74.0816 17.0408C74.5931 17.6196 75.3131 17.9089 76.2418 17.9089C76.7802 17.9089 77.2513 17.808 77.6551 17.6061C78.0588 17.4042 78.3549 17.0947 78.5434 16.6774H80.9459C80.6094 17.6465 80.0374 18.4137 79.2298 18.979C78.4357 19.5442 77.433 19.8269 76.2216 19.8269Z" fill="#202020"/>
<path d="M19.9501 18.3C19.9501 18.7971 19.5472 19.2 19.0501 19.2H16.9063C16.5654 19.2 16.2538 19.0074 16.1014 18.7025L13.5551 13.61C13.2234 12.9466 12.2768 12.9466 11.9451 13.61L9.39886 18.7025C9.24641 19.0074 8.93477 19.2 8.59388 19.2H6.45011C5.95305 19.2 5.55011 18.7971 5.55011 18.3V16.1562C5.55011 15.8153 5.74271 15.5037 6.04762 15.3512L11.1401 12.805C11.8035 12.4733 11.8035 11.5267 11.1401 11.195L6.04762 8.64875C5.74271 8.4963 5.55011 8.18466 5.55011 7.84377V5.7C5.55011 5.20294 5.95305 4.8 6.45011 4.8H8.59388C8.93477 4.8 9.24641 4.9926 9.39886 5.29751L11.9451 10.39C12.2768 11.0534 13.2234 11.0534 13.5551 10.39L16.1014 5.29751C16.2538 4.9926 16.5654 4.8 16.9063 4.8H19.0501C19.5472 4.8 19.9501 5.20294 19.9501 5.7V7.84377C19.9501 8.18466 19.7575 8.4963 19.4526 8.64875L14.3601 11.195C13.6967 11.5267 13.6967 12.4733 14.3601 12.805L19.4526 15.3512C19.7575 15.5037 19.9501 15.8153 19.9501 16.1562V18.3Z" fill="#FFA842"/>
</g>
<defs>
<clipPath id="clip0_26_476">
<rect width="86" height="24" fill="white"/>
</clipPath>
</defs>
</svg>
