<svg width="115" height="32" viewBox="0 0 115 32" fill="none" xmlns="http://www.w3.org/2000/svg">
<g clip-path="url(#clip0_23_458)">
<path d="M42.979 25.7423C40.5384 25.7423 38.5913 25.186 37.1377 24.0733C35.702 22.9427 34.8586 21.3545 34.6074 19.3087H37.9722C38.1337 20.4931 38.6631 21.4174 39.5604 22.0813C40.4577 22.7274 41.6331 23.0504 43.0867 23.0504C44.2891 23.0504 45.2043 22.8351 45.8324 22.4044C46.4784 21.9557 46.8015 21.3366 46.8015 20.547C46.8015 19.8471 46.6041 19.2818 46.2093 18.8511C45.8145 18.4204 45.1505 18.0705 44.2173 17.8013L40.7179 16.7515C38.9412 16.2131 37.6312 15.5042 36.7878 14.6249C35.9623 13.7456 35.5495 12.6419 35.5495 11.3139C35.5495 10.2013 35.8366 9.23222 36.4109 8.40672C36.9852 7.58122 37.7927 6.94415 38.8336 6.4955C39.8924 6.04686 41.1217 5.82254 42.5214 5.82254C44.6749 5.82254 46.3887 6.35194 47.6629 7.41073C48.9549 8.45159 49.6907 9.8693 49.8702 11.6639H46.5054C46.308 10.5871 45.8593 9.79751 45.1594 9.29503C44.4596 8.77461 43.5174 8.51439 42.333 8.51439C41.2921 8.51439 40.4666 8.72077 39.8565 9.13352C39.2463 9.54627 38.9412 10.1116 38.9412 10.8294C38.9412 11.4216 39.1207 11.9241 39.4796 12.3368C39.8565 12.7496 40.5474 13.1085 41.5523 13.4136L45.1056 14.4903C46.8822 15.0107 48.1743 15.7196 48.9819 16.6169C49.7894 17.5142 50.1932 18.6537 50.1932 20.0355C50.1932 21.866 49.5561 23.2747 48.282 24.2617C47.0258 25.2488 45.2581 25.7423 42.979 25.7423ZM59.4994 25.7692C58.1894 25.7692 57.1216 25.4641 56.2961 24.854C55.4886 24.2259 54.9861 23.3645 54.7887 22.2698L55.0579 22.2429V31.0183H51.6662V11.7715H54.9771V14.8672L54.7079 14.8133C54.9592 13.7904 55.5334 12.9829 56.4307 12.3907C57.328 11.7985 58.4227 11.5024 59.7148 11.5024C60.9351 11.5024 61.9939 11.7985 62.8912 12.3907C63.8064 12.9649 64.5153 13.7815 65.0178 14.8403C65.5202 15.8991 65.7715 17.1463 65.7715 18.5819C65.7715 20.0355 65.5113 21.3007 64.9908 22.3774C64.4704 23.4542 63.7436 24.2887 62.8104 24.8809C61.8773 25.4731 60.7736 25.7692 59.4994 25.7692ZM58.6381 22.9697C59.7327 22.9697 60.6031 22.5928 61.2492 21.8391C61.8952 21.0674 62.2182 19.9907 62.2182 18.6089C62.2182 17.227 61.8862 16.1593 61.2222 15.4055C60.5762 14.6518 59.7058 14.275 58.6111 14.275C57.5344 14.275 56.664 14.6608 56 15.4325C55.336 16.1862 55.0041 17.254 55.0041 18.6358C55.0041 20.0176 55.336 21.0854 56 21.8391C56.664 22.5928 57.5434 22.9697 58.6381 22.9697ZM73.7375 25.7692C72.2839 25.7692 71.0007 25.4641 69.8881 24.854C68.7934 24.2438 67.941 23.4004 67.3309 22.3236C66.7207 21.2289 66.4156 19.9817 66.4156 18.5819C66.4156 17.1822 66.7207 15.9529 67.3309 14.8941C67.941 13.8353 68.7934 13.0098 69.8881 12.4176C71.0007 11.8074 72.2839 11.5024 73.7375 11.5024C75.209 11.5024 76.4921 11.8074 77.5868 12.4176C78.6815 13.0098 79.5339 13.8353 80.1441 14.8941C80.7542 15.9529 81.0593 17.1822 81.0593 18.5819C81.0593 19.9817 80.7453 21.2289 80.1172 22.3236C79.507 23.4004 78.6546 24.2438 77.5599 24.854C76.4652 25.4641 75.1911 25.7692 73.7375 25.7692ZM73.7375 23.0504C74.4553 23.0504 75.1013 22.871 75.6756 22.512C76.2499 22.1352 76.6985 21.6148 77.0215 20.9508C77.3446 20.2688 77.5061 19.4702 77.5061 18.555C77.5061 17.2091 77.1472 16.1503 76.4293 15.3786C75.7294 14.607 74.8322 14.2211 73.7375 14.2211C72.6428 14.2211 71.7365 14.607 71.0187 15.3786C70.3009 16.1503 69.942 17.2091 69.942 18.555C69.942 19.4702 70.1035 20.2688 70.4265 20.9508C70.7675 21.6148 71.2161 22.1352 71.7724 22.512C72.3467 22.871 73.0017 23.0504 73.7375 23.0504ZM82.4774 25.5V5.93021H85.8691V25.5H82.4774ZM91.3336 25.5L85.0885 18.3666L91.1451 11.7715H95.2368L88.2379 18.9857L88.4264 17.7205L95.506 25.5H91.3336ZM101.629 25.7692C100.175 25.7692 98.9011 25.4641 97.8064 24.854C96.7297 24.2438 95.8862 23.4004 95.2761 22.3236C94.6839 21.2469 94.3878 20.0086 94.3878 18.6089C94.3878 17.2091 94.6839 15.9798 95.2761 14.921C95.8862 13.8443 96.7297 13.0098 97.8064 12.4176C98.8832 11.8074 100.139 11.5024 101.575 11.5024C102.939 11.5024 104.123 11.7895 105.128 12.3637C106.133 12.9201 106.914 13.7097 107.47 14.7326C108.027 15.7555 108.305 16.9489 108.305 18.3127C108.305 18.564 108.296 18.7973 108.278 19.0126C108.26 19.228 108.233 19.4433 108.197 19.6587H96.4874V17.2898H105.586L104.886 17.9359C104.886 16.6438 104.59 15.6747 103.998 15.0287C103.405 14.3826 102.58 14.0596 101.521 14.0596C100.373 14.0596 99.4574 14.4544 98.7755 15.244C98.1115 16.0336 97.7795 17.1732 97.7795 18.6627C97.7795 20.1342 98.1115 21.2648 98.7755 22.0544C99.4574 22.8261 100.418 23.2119 101.656 23.2119C102.374 23.2119 103.002 23.0773 103.54 22.8081C104.078 22.539 104.473 22.1262 104.725 21.5699H107.928C107.479 22.862 106.716 23.8849 105.64 24.6386C104.581 25.3923 103.244 25.7692 101.629 25.7692Z" fill="#202020"/>
<path d="M26.6001 24.4C26.6001 25.0627 26.0628 25.6 25.4001 25.6H22.5417C22.0872 25.6 21.6717 25.3432 21.4684 24.9367L18.0734 18.1466C17.6312 17.2622 16.369 17.2622 15.9268 18.1466L12.5318 24.9367C12.3285 25.3432 11.913 25.6 11.4585 25.6H8.6001C7.93736 25.6 7.4001 25.0627 7.4001 24.4V21.5416C7.4001 21.0871 7.6569 20.6716 8.06344 20.4683L14.8535 17.0733C15.7379 16.6311 15.7379 15.3689 14.8535 14.9267L8.06344 11.5317C7.6569 11.3284 7.4001 10.9129 7.4001 10.4584V7.6C7.4001 6.93726 7.93736 6.4 8.6001 6.4H11.4585C11.913 6.4 12.3285 6.6568 12.5318 7.06334L15.9268 13.8534C16.369 14.7378 17.6312 14.7378 18.0734 13.8534L21.4684 7.06334C21.6717 6.6568 22.0872 6.4 22.5417 6.4H25.4001C26.0628 6.4 26.6001 6.93726 26.6001 7.6V10.4584C26.6001 10.9129 26.3433 11.3284 25.9368 11.5317L19.1467 14.9267C18.2623 15.3689 18.2623 16.6311 19.1467 17.0733L25.9368 20.4683C26.3433 20.6716 26.6001 21.0871 26.6001 21.5416V24.4Z" fill="#FFA842"/>
</g>
<defs>
<clipPath id="clip0_23_458">
<rect width="115" height="32" fill="white"/>
</clipPath>
</defs>
</svg>
